<svg width="300" height="200" viewBox="0 0 300 200" fill="none" xmlns="http://www.w3.org/2000/svg">
<path d="M80.4661 0.115646C78.6824 0.310364 75.9258 1.08923 73.9259 1.96544C65.1696 5.81105 59.278 13.5996 53.4404 29.0308C52.0891 32.487 50.4135 36.722 49.6028 38.3771C48.1974 41.4438 47.6569 43.9264 48.7379 42.4174C49.5487 41.2978 49.3866 42.32 48.0353 46.3604C47.3867 48.4049 46.6299 50.06 46.3056 50.0113C46.0354 50.0113 44.9003 52.5912 43.7112 55.804C39.9276 66.5133 37.3331 76.3951 35.7656 86.0822C34.036 96.8401 31.928 105.554 28.9552 114.218C25.9823 122.932 25.3337 125.755 25.9823 126.729C26.3607 127.313 26.3066 127.654 25.8202 128.043C25.4418 128.335 24.9554 129.65 24.7392 130.964C24.3067 133.836 23.0095 135.053 18.9557 136.319C12.5236 138.266 9.17237 140.505 5.01042 145.519C-3.31349 155.449 -0.98928 164.552 9.92909 164.601C14.6856 164.601 20.6313 162.264 20.6313 160.366C20.6313 159.83 20.415 159.83 19.1719 160.414C18.307 160.804 20.361 158.662 23.6041 155.693C29.5497 150.241 29.6038 150.241 38.4682 146.249C49.0082 141.527 55.2782 139.58 68.7369 136.854C85.5469 133.495 93.006 131.061 97.8166 127.362C100.249 125.463 100.843 123.565 99.1678 123.029C98.6273 122.835 95.0599 122.542 91.1682 122.396C77.7635 121.861 61.7103 124.149 39.6033 129.844C38.4682 130.136 38.3601 130.088 38.7384 129.26C42.0356 122.056 47.0624 107.501 53.3864 86.5203C61.0076 61.4021 66.4668 45.7275 71.4395 35.1156C75.2772 26.7915 81.1687 18.1268 85.7091 14.2325C86.736 13.3076 87.4928 12.3827 87.3306 12.188C86.8982 11.5551 90.3034 10.1921 92.4114 10.1434C96.141 10.0461 97.4923 13.4536 96.0869 19.1977C94.4654 25.7693 87.4928 43.391 86.7901 42.7582C86.6279 42.6608 86.9522 41.7359 87.3847 40.665C89.0062 37.0141 86.682 40.3729 82.7362 47.48C78.7364 54.6844 78.4662 55.9501 80.7904 57.0697C83.0605 58.1893 88.3035 57.7512 92.0871 56.1935C102.519 51.7637 111.708 37.939 112.356 25.6233C112.843 17.64 110.789 12.3827 105.438 7.80687C102.843 5.56766 96.3031 2.20883 92.4655 1.08922C89.4927 0.213013 83.9254 -0.225098 80.4661 0.115646ZM76.8446 6.5899C76.8446 6.68727 76.4663 6.93066 75.9798 7.07669C75.5474 7.22273 75.3312 7.17404 75.4934 6.88197C75.8177 6.39519 76.8446 6.20049 76.8446 6.5899ZM73.3313 8.4397C69.0072 11.2144 64.4128 16.6664 60.6833 23.2867C58.8996 26.5482 48.8461 48.2102 47.711 51.3256C47.3326 52.3478 46.9002 53.1267 46.7921 52.9807C46.5218 52.7373 51.7648 37.5982 53.6566 33.3145C58.4131 22.5078 65.9263 12.3827 71.7638 8.92648C74.6285 7.17406 75.8177 6.8333 73.3313 8.4397ZM87.0603 12.3827C86.9522 12.48 85.655 13.5023 84.1416 14.6706L81.439 16.8124L83.8713 14.5245C85.1685 13.2589 86.4658 12.2366 86.7901 12.2366C87.0603 12.2366 87.1684 12.2853 87.0603 12.3827Z" fill="white"/>
<path d="M216.189 2.25751C209.649 4.39937 203.703 10.4842 192.19 26.7429C185.326 36.3326 180.785 43.8291 171.543 60.4285C162.624 76.3951 158.138 85.498 153.868 96.1586C152.084 100.637 150.679 103.217 149.057 105.164C145.22 109.691 142.193 114.121 142.787 114.462C143.814 115.046 130.193 125.561 124.734 128.384C117.653 132.035 115.437 126.924 119.599 116.75C120.518 114.559 121.329 112.077 121.383 111.298C121.437 110.47 121.815 109.399 122.194 108.864C122.896 107.89 122.788 108.231 121.869 110.421C121.005 112.515 122.302 110.47 124.085 107.014C126.193 102.828 126.248 102 124.194 105.554C123.437 106.868 122.842 107.744 122.788 107.501C122.734 106.479 127.869 98.3492 129.707 96.5967C131.815 94.5522 132.896 92.021 132.193 90.4146C132.031 89.9764 130.031 88.8082 127.761 87.8346C124.248 86.2769 123.113 85.9848 120.086 85.9848C116.032 85.9848 113.654 87.0557 111.492 89.9278C108.951 93.2379 103.6 110.762 104.249 113.683C104.465 114.657 104.303 115.192 103.654 115.533C102.519 116.117 102.411 122.494 103.546 124.83C104.411 126.778 111.437 135.102 113.167 136.319C117.599 139.385 124.356 140.894 127.815 139.58C130.734 138.509 135.544 134.177 139.814 128.822C141.868 126.291 143.598 124.295 143.76 124.392C143.868 124.49 143.112 126.972 142.085 129.893C137.76 141.965 134.842 152.918 133.49 162.167C132.517 169.031 132.68 181.638 133.761 185.679C136.139 194.295 141.652 199.309 149.436 199.942C157.435 200.623 165.11 195.317 170.678 185.484C174.732 178.182 182.407 154.476 183.38 146.103C183.704 143.572 184.299 140.992 184.677 140.408C185.434 139.385 186.028 139.191 191.433 138.558C194.514 138.168 203 134.566 207.325 131.791C209.162 130.623 212.676 127.751 215.108 125.415C217.54 123.127 219.54 121.52 219.54 121.861C219.54 122.202 219.054 125.025 218.459 128.092C217.865 131.159 217.378 135.345 217.378 137.389C217.378 141.527 218.783 146.736 219.594 145.567C219.919 145.081 220.081 145.178 220.081 146.103C220.081 149.803 228.567 156.325 235.918 158.37C242.35 160.122 246.566 159.003 254.187 153.502C259.106 149.997 260.998 148.099 266.943 140.846C269.538 137.73 273.7 132.96 276.24 130.282C283.807 122.299 299.806 103.266 299.969 102C300.239 100.15 298.725 98.3979 296.888 98.3979C294.996 98.3979 293.645 99.7609 285.213 109.837C282.078 113.586 277.429 118.94 274.889 121.764C272.348 124.587 269.862 127.605 269.484 128.481C267.646 132.278 252.566 144.643 245.917 147.807C235.81 152.626 233.323 147.417 237.593 130.38C238.35 127.362 239.161 123.224 239.485 121.131C239.755 119.038 240.134 117.188 240.296 117.042C240.458 116.896 242.296 116.263 244.404 115.63C251.863 113.342 255.701 111.2 264.727 104.191C270.348 99.8582 275.429 94.3089 277.537 90.1225C279.429 86.4229 280.132 80.7275 278.997 77.7094C276.835 71.8193 266.403 67.6816 257.538 69.142C251.971 70.0669 248.025 72.1601 242.728 76.9306C235.864 83.1614 228.945 93.1406 225.107 102.243C223.54 105.992 222.783 107.063 217.216 112.855C212.676 117.626 206.514 122.689 201.865 125.463C197.866 127.848 191.866 130.039 189.38 130.039C186.245 130.039 185.758 129.26 185.704 123.759C185.65 118.113 184.407 113.926 182.245 111.979C180.461 110.373 179.218 110.227 177.596 111.444C173.11 114.705 172.461 126.047 176.353 134.031L178.029 137.438L176.84 142.355C172.029 163.189 160.678 185.533 152.462 190.498C149.273 192.445 147.111 192.299 145.003 190.157L143.328 188.405L143.49 181.979C143.652 176.624 144.03 174.239 145.706 167.765C148.409 157.396 151.652 147.515 157.165 132.424L161.705 119.914L169.381 112.223C191.217 90.1225 207.271 70.9918 217.648 54.5871C221.918 47.8207 228.134 36.0892 229.54 32.1462C232.675 23.1893 233.431 12.2853 231.215 7.61215C228.729 2.40353 222.459 0.164322 216.189 2.25751ZM222.135 13.1128C226.08 15.4007 220.945 30.7345 209.27 51.3743C201.541 65.053 187.272 83.1128 171.272 99.5175C169.489 101.367 169.326 101.951 174.299 90.8527C183.65 70.0182 197.866 42.9042 206.46 29.4689C211.27 21.9724 216.675 15.2547 219 13.7943C221 12.6261 221.162 12.5774 222.135 13.1128ZM266.727 75.9083C267.97 77.1253 268.673 80.5815 268.132 82.7233C267.862 83.6969 267.646 85.4493 267.646 86.5689C267.646 88.3701 267.159 89.1976 264.187 92.7025C259.808 97.8137 254.079 102.682 248.836 105.748C245.106 107.939 243.863 108.474 243.863 107.89C243.863 107.257 251.863 90.7553 253.701 87.6886C257.268 81.6037 263.16 75.0321 264.943 75.0321C265.484 75.0321 266.241 75.4215 266.727 75.9083ZM224.351 119.427C224.026 123.905 223.486 126.534 221 135.394L219.702 140.018L219.27 137.779C219.054 136.513 219.162 134.761 219.486 133.641C219.81 132.619 220.081 130.428 220.081 128.822C220.135 127.216 220.513 125.025 220.945 123.954C221.432 122.883 222.243 120.693 222.783 119.135C224.026 115.679 224.297 114.949 224.513 114.949C224.621 114.949 224.513 116.993 224.351 119.427ZM219.378 143.28C219.27 143.912 219.162 143.426 219.162 142.209C219.162 140.992 219.27 140.505 219.378 141.089C219.486 141.722 219.486 142.695 219.378 143.28ZM146.409 154.476C146.247 154.865 146.084 154.719 146.084 154.184C146.03 153.648 146.192 153.356 146.355 153.551C146.517 153.697 146.571 154.135 146.409 154.476ZM145.706 157.153C145.544 158.175 144.679 161.583 143.814 164.698C142.949 167.814 141.922 172.097 141.49 174.191L140.733 177.987L140.679 175.213C140.625 171.903 141.706 167.083 143.976 160.317C145.76 155.157 146.301 154.086 145.706 157.153Z" fill="white"/>
<path d="M94.1411 11.5065C94.1411 11.7499 94.4114 12.334 94.6816 12.7235C94.9519 13.1129 95.2221 13.2102 95.2221 12.9669C95.2221 12.6748 94.9519 12.1393 94.6816 11.7499C94.4114 11.3605 94.1411 11.2144 94.1411 11.5065Z" fill="white"/>
<path d="M95.3302 14.914C95.3302 15.6928 95.4383 15.9849 95.6005 15.4981C95.7086 15.06 95.7086 14.3785 95.6005 14.0377C95.4383 13.7457 95.3302 14.0864 95.3302 14.914Z" fill="white"/>
<path d="M131.815 41.5412C130.68 41.882 130.41 42.2714 130.626 42.9042C130.788 43.4397 130.626 43.9752 130.193 44.2185C129.761 44.4133 129.166 45.0948 128.788 45.6789C128.302 46.5551 128.356 46.8959 129.166 47.6261C131.004 49.1838 130.95 50.5955 128.896 55.512C127.815 58.092 126.95 60.5259 126.896 60.9153C126.788 62.2297 124.031 66.0266 122.032 67.4869C120.248 68.8013 120.086 69.1907 120.086 71.3812C120.086 73.8152 121.545 77.2714 122.842 78.0015C124.572 78.9751 131.437 74.8861 132.572 72.2575C132.842 71.6246 133.328 71.2352 133.599 71.3812C134.572 71.9167 136.517 70.4077 138.301 67.779L140.031 65.2964L138.571 65.9779C137.761 66.3673 135.436 68.1685 133.382 70.0182L129.707 73.3284L132.247 70.2616C133.653 68.5579 135.166 67.0488 135.544 66.9028C135.923 66.8054 136.085 66.3673 135.977 66.0266C135.815 65.6372 136.517 64.6149 137.49 63.69C138.517 62.8138 139.76 61.0127 140.301 59.7957C140.841 58.5301 141.436 57.5078 141.652 57.5078C141.922 57.5078 143.22 56.6316 144.571 55.5607C147.598 53.1754 148.571 50.8388 147.706 48.3076C146.949 45.971 143.598 42.4661 141.328 41.6386C139.328 40.8597 134.031 40.811 131.815 41.5412Z" fill="white"/>
</svg>
