<svg width="62" height="43" viewBox="0 0 62 43" fill="none" xmlns="http://www.w3.org/2000/svg">
<path d="M16.4601 0.0563164C14.7001 0.326183 13.2335 1.49765 12.1201 3.53392C11.7001 4.30672 11.3068 5.22058 10.8935 6.37978C10.7001 6.91952 10.4135 7.63712 10.2535 7.97445C10.0935 8.31792 9.94678 8.71658 9.92678 8.86378L9.88678 9.13978L10.0268 8.90672C10.1935 8.62458 10.2401 8.61845 10.1535 8.87605C10.1201 8.98645 9.96678 9.47711 9.82012 9.96778C9.54012 10.8755 9.44678 11.1086 9.52678 10.6731C9.56012 10.5075 9.55345 10.4462 9.50678 10.4891C9.27345 10.6976 7.91345 15.0216 7.60012 16.5734C7.54678 16.8494 7.43345 17.524 7.36012 18.076C7.18678 19.3334 7.02012 20.2288 6.72678 21.4187C6.47345 22.4307 5.90012 24.3382 5.69345 24.8534C5.36678 25.6691 5.20678 26.5462 5.36678 26.6934C5.41345 26.7363 5.41345 26.8222 5.37345 26.9632C5.31345 27.1472 5.30678 27.1534 5.30012 27.0184C5.28012 26.7486 5.16678 27.0246 5.09345 27.5091C5.05345 27.7483 4.99345 27.9998 4.96012 28.0611C4.84012 28.2696 4.47345 28.472 3.92678 28.6438C2.70012 29.024 2.02012 29.4534 1.21345 30.3734C0.426783 31.2688 0.00678279 32.1214 0.000116122 32.8451C-0.00655054 33.6424 0.27345 34.1208 0.940116 34.4152C1.71345 34.7648 2.98012 34.6606 3.79345 34.1883C4.09345 34.0166 4.32678 33.759 4.28012 33.6486C4.27345 33.6118 4.08012 33.6731 3.86012 33.7712C3.64012 33.8755 3.50678 33.9184 3.56012 33.8755C3.61345 33.8264 3.91345 33.5811 4.22012 33.3296C4.52678 33.0843 4.96678 32.6672 5.20012 32.4035C5.78678 31.7472 5.94678 31.6552 8.22678 30.6064C10.0335 29.7723 11.3335 29.343 13.1268 28.9811C16.6601 28.2758 17.7401 27.9875 19.0201 27.411C19.6068 27.1472 19.8735 26.9816 20.2001 26.6872C20.7268 26.2211 20.7668 26.0248 20.3801 25.8654C20.0001 25.712 16.2735 25.7182 15.0935 25.8715C13.1001 26.1352 10.4935 26.6688 8.59345 27.1963C8.23345 27.3006 7.92678 27.3742 7.91345 27.368C7.90678 27.3558 8.02678 27.0307 8.18678 26.6443C8.96678 24.7552 9.75345 22.3632 11.0268 18.0699C13.7735 8.75338 15.3268 5.20218 17.5868 3.04325C17.9868 2.66298 18.0268 2.60778 17.8268 2.70592C17.7001 2.77338 17.3668 3.03098 17.0935 3.28245C16.7868 3.56458 16.6801 3.64432 16.8134 3.48485C17.6135 2.54645 18.9201 1.93925 19.4601 2.26432C20.0335 2.61392 20.0068 3.49712 19.3601 5.42912C18.8801 6.84592 17.8068 9.36058 17.7201 9.27472C17.7068 9.26245 17.8001 9.01712 17.9268 8.72272C18.0535 8.42832 18.1601 8.17072 18.1601 8.14618C18.1535 8.01125 17.6001 8.91898 16.9535 10.1211C16.1668 11.5747 16.1401 11.6606 16.4734 11.912C17.1201 12.4027 18.5468 12.188 19.7201 11.4152C21.5335 10.2254 23.1601 7.25685 23.1601 5.14085C23.1601 3.33152 22.4201 2.00672 20.9135 1.11738C19.4135 0.221916 17.8335 -0.152218 16.4601 0.0563164ZM15.5935 1.51605C14.8668 1.86565 13.9401 2.70592 13.3068 3.58298C12.6268 4.53978 12.1535 5.49045 10.2801 9.69178C10.1001 10.0904 9.84678 10.6854 9.72012 11.0104C9.36678 11.9182 9.52678 11.3232 10.1001 9.60592C10.7935 7.53285 11.0868 6.81525 11.7068 5.66832C12.5201 4.15952 13.5135 2.85925 14.3934 2.17232C14.7734 1.87792 15.6535 1.38111 15.7935 1.38725C15.8335 1.38725 15.7401 1.44245 15.5935 1.51605Z" fill="black"/>
<path d="M44.8268 0.399796C44.1735 0.522461 43.5735 0.878197 42.7868 1.59579C41.9668 2.34406 41.4601 2.94513 40.1735 4.70539C38.7201 6.70486 37.8068 8.15233 36.0535 11.2558C33.8201 15.2179 32.4535 18.027 31.4935 20.6153C31.1935 21.4187 31.1268 21.5475 30.7268 22.0198C30.1801 22.6638 29.2935 23.8782 29.2935 23.9825C29.2935 24.0315 29.3468 24.0745 29.4135 24.0929C29.5868 24.1297 28.9735 24.651 27.3601 25.8409C26.0335 26.8161 25.2668 27.2638 24.9135 27.2638C24.4135 27.2638 24.1601 26.9449 24.1601 26.307C24.1601 25.5403 24.5201 24.5161 25.4401 22.6699C25.7268 22.0873 25.9535 21.5966 25.9335 21.5782C25.9068 21.5537 25.0735 23.0931 24.8935 23.5102C24.8468 23.6206 24.8001 23.7003 24.7868 23.6881C24.7201 23.6329 25.5535 21.9339 26.0801 21.0385C26.4468 20.4129 26.6068 20.1982 26.5268 20.4251C26.4668 20.5969 26.9201 20.1307 27.0468 19.8854C27.1135 19.7689 27.1268 19.6769 27.0868 19.6523C27.0535 19.6339 27.0868 19.5665 27.1601 19.5051C27.4735 19.2414 27.2535 18.9225 26.5135 18.5667C25.1268 17.9105 24.0668 17.8982 23.3068 18.5238C22.9001 18.8611 22.7068 19.1923 22.3401 20.1798C21.8801 21.4249 21.2868 23.7678 21.4401 23.7678C21.5001 23.7678 21.5135 24.0193 21.4535 24.1603C21.4335 24.2155 21.3868 24.2462 21.3535 24.2278C21.2135 24.1419 21.1268 24.5038 21.1268 25.2091C21.1268 26.1414 21.1668 26.2273 22.2001 27.4907C22.9201 28.3739 23.5601 28.9689 23.7001 28.8891C23.7268 28.8707 23.8135 28.9075 23.8801 28.9689C24.0468 29.1222 24.6068 29.3185 25.2468 29.435C25.7335 29.527 25.7735 29.527 26.0935 29.4166C26.9468 29.1161 27.6468 28.4966 28.8468 26.9694C29.2801 26.4235 29.6401 25.9758 29.6535 25.9758C29.6668 25.9758 29.4668 26.5769 29.2135 27.3067C27.7801 31.4835 27.2935 33.851 27.2935 36.7398C27.2935 38.3897 27.4935 39.371 28.0135 40.2849C28.6268 41.3766 29.7601 42.0451 30.9868 42.0451C31.9135 42.0451 32.7201 41.7017 33.5735 40.9534C34.8868 39.7942 35.6801 38.1811 36.8135 34.3478C37.4735 32.1275 37.6601 31.3425 37.7535 30.4715C37.7868 30.0974 37.8668 29.6926 37.9201 29.5699C38.0335 29.3246 38.2068 29.2633 38.9935 29.2019C39.7935 29.1345 41.2335 28.5702 42.2935 27.9201C43.2935 27.3067 44.3601 26.3929 44.9135 25.6814C45.0268 25.5342 45.1335 25.4422 45.1468 25.4729C45.1535 25.5035 45.0735 26.0371 44.9601 26.6566C44.6001 28.6193 44.5935 29.5209 44.9335 30.3734C45.0268 30.6249 45.1201 30.815 45.1335 30.8027C45.1468 30.7905 45.1268 30.5574 45.0868 30.2875C45.0468 29.987 45.0401 29.6865 45.0735 29.4963C45.1068 29.3246 45.1068 29.0793 45.0735 28.9259C45.0335 28.7297 45.0468 28.5089 45.1201 28.1593C45.1801 27.8833 45.2268 27.4417 45.2268 27.1718C45.2335 26.6075 45.3068 26.2641 45.5268 25.7918C45.6135 25.6078 45.7801 25.1723 45.9001 24.8227C46.0135 24.4793 46.1268 24.1849 46.1535 24.1726C46.1735 24.1603 46.1801 24.467 46.1735 24.8595C46.1468 25.6385 45.9068 26.7793 45.4535 28.3371C45.2201 29.1222 45.2001 29.2633 45.2001 30.0238C45.1935 31.0235 45.2268 31.1094 45.9468 31.8086C46.5601 32.4097 47.4268 32.9494 48.2135 33.2193C48.7335 33.4033 48.8668 33.4217 49.5268 33.4217C50.2335 33.4278 50.2801 33.4217 50.7601 33.207C52.0068 32.6611 53.5668 31.3057 54.8601 29.6558C55.7268 28.5518 55.9201 28.3249 56.7535 27.4478C57.8068 26.3438 61.6668 21.7009 61.7335 21.4617C61.7601 21.3635 61.7135 21.2225 61.6001 21.0446C61.1801 20.3822 60.6001 20.603 59.7601 21.7438C59.2335 22.4614 58.1268 23.7862 57.1068 24.9147C55.9735 26.1782 55.5401 26.7118 55.3868 27.0553C55.1601 27.5582 53.0335 29.4779 51.6401 30.4409C51.2868 30.6862 50.7601 30.9929 50.4801 31.1278C49.0868 31.7963 48.5068 31.5142 48.4401 30.1342C48.4068 29.4534 48.5001 28.8462 48.9068 27.1718C49.0535 26.5646 49.1935 25.8041 49.2201 25.4851C49.2935 24.6142 49.3068 24.6019 50.3668 24.2646C51.8135 23.7985 52.4201 23.4734 53.9068 22.3326C56.3801 20.4374 57.4935 18.8673 57.5001 17.2665C57.5001 16.6409 57.3735 16.2299 57.0668 15.8313C56.6201 15.2486 55.6601 14.7518 54.6468 14.5678C53.9801 14.4451 52.8335 14.5126 52.2335 14.7089C50.7935 15.175 49.5201 16.2729 48.0735 18.2785C47.4735 19.1126 46.5335 20.8299 46.2268 21.6518C45.9801 22.3142 45.6268 22.7681 44.4468 23.9579C43.0001 25.4238 41.8201 26.3009 40.4868 26.9019C39.4535 27.3742 38.8868 27.4846 38.4935 27.2945C38.2068 27.1595 38.1335 26.8713 38.1868 26.1107C38.2335 25.4177 38.0868 24.5345 37.8335 24.0009C37.6935 23.7003 37.3668 23.3691 37.1535 23.3078C36.9268 23.2403 36.5935 23.3323 36.4135 23.5102C35.9535 23.9518 35.7601 24.6449 35.7601 25.8409C35.7601 26.8345 35.8735 27.3803 36.2201 28.0734C36.3668 28.3494 36.5001 28.6806 36.5268 28.7971C36.6068 29.1897 36.0601 31.3977 35.4801 33.0291C34.2001 36.6417 32.2868 39.7635 31.0468 40.2358C30.3201 40.5179 29.6001 40.1254 29.5068 39.3894C29.4268 38.7393 29.4801 37.5433 29.6201 36.8011C29.8135 35.7953 30.5468 33.0782 31.0268 31.5694C31.6201 29.7355 33.0135 25.8163 33.2401 25.3809C33.3801 25.1049 33.6668 24.7614 34.2468 24.1849C35.9668 22.4614 37.4201 20.8913 39.6001 18.395C42.2401 15.3774 44.4535 12.2249 46.0601 9.20113C46.8801 7.66166 47.1401 7.04833 47.4135 6.07313C48.0868 3.6566 47.9201 1.6694 46.9668 0.841396C46.5201 0.454994 45.5801 0.258728 44.8268 0.399796ZM45.7335 2.87153C46.3535 3.3622 45.7068 5.55793 43.8468 9.29313C43.0401 10.9185 42.5735 11.7158 41.6735 13.0345C39.8268 15.7454 37.9601 18.0209 35.0401 21.1243L34.8935 21.2838L35.0201 20.9771C35.0935 20.8054 35.3401 20.2411 35.5801 19.7198C35.8135 19.1985 36.0335 18.7017 36.0601 18.6158C36.0868 18.5299 36.4668 17.7019 36.8935 16.7758C39.4735 11.2313 42.1468 6.39206 43.8468 4.20247C44.5935 3.23953 44.7801 3.03713 45.0535 2.8838C45.3935 2.69366 45.5068 2.69366 45.7335 2.87153ZM54.7468 15.8926C55.1068 16.1257 55.2735 16.8065 55.1268 17.4566C55.0735 17.6958 55.0268 18.0577 55.0268 18.2723V18.6526L54.3535 19.4622C53.6068 20.3577 52.4735 21.4003 51.6535 21.9401C51.1468 22.2713 50.0935 22.8723 50.0935 22.8233C50.0935 22.6515 51.6135 19.4131 52.1335 18.4931C52.5201 17.8062 53.3535 16.6715 53.8201 16.1993C54.0268 15.9907 54.3535 15.7945 54.4935 15.7945C54.5535 15.7945 54.6668 15.8374 54.7468 15.8926ZM30.3201 31.7657C30.3001 31.8577 30.2668 31.919 30.2468 31.9067C30.2335 31.8883 30.2401 31.8025 30.2668 31.7166C30.2868 31.6246 30.3201 31.5633 30.3401 31.5755C30.3535 31.5939 30.3468 31.6798 30.3201 31.7657ZM30.0201 32.8513C29.9068 33.3051 29.6668 34.2374 29.4935 34.9305C29.1001 36.4577 29.0401 36.7337 28.9668 37.3593L28.9135 37.8438L28.9001 37.163C28.8935 36.4638 28.9935 35.7769 29.2335 34.8998C29.3935 34.3233 30.1801 31.9865 30.2068 32.011C30.2201 32.0233 30.1335 32.3974 30.0201 32.8513Z" fill="black"/>
<path d="M19.2201 2.39928C19.4468 2.55261 19.5601 2.85928 19.5601 3.34994C19.5601 3.59528 19.5735 3.77928 19.5935 3.76088C19.6135 3.74248 19.6335 3.52168 19.6401 3.27021C19.6468 2.77954 19.5335 2.47901 19.3001 2.36248C19.1001 2.26434 19.0468 2.28888 19.2201 2.39928Z" fill="black"/>
<path d="M18.1268 2.5465C18.1068 2.58327 18.1334 2.5894 18.1868 2.57101C18.3068 2.52811 18.3268 2.4852 18.2334 2.4852C18.1934 2.4852 18.1468 2.50972 18.1268 2.5465Z" fill="black"/>
<path d="M19.5001 3.99399C19.5001 4.06148 19.5201 4.07989 19.5401 4.0308C19.56 3.98785 19.5534 3.93263 19.5334 3.91423C19.5134 3.88968 19.4934 3.9265 19.5001 3.99399Z" fill="black"/>
<path d="M27.6401 8.61846C27.2268 8.71046 26.8268 8.87606 26.8268 8.94966C26.8268 8.9926 26.8535 9.0478 26.8935 9.0846C26.9335 9.1214 26.8601 9.22566 26.6935 9.379C26.3535 9.67953 26.3335 9.92486 26.6201 10.0782C27.0068 10.2806 26.9201 10.8142 26.2801 12.2371C25.9335 13.0038 25.9201 13.0406 26.0935 12.8014C26.5001 12.2433 26.1068 13.0099 25.6535 13.6662C25.4868 13.8931 25.3335 14.0649 25.3001 14.0465C25.2601 14.0281 25.1801 14.0955 25.1201 14.1998C25.0535 14.2979 24.9468 14.3838 24.8801 14.3838C24.7268 14.3838 24.6601 14.623 24.6668 15.1259C24.6735 15.4449 24.7201 15.6105 24.8601 15.8619C24.9668 16.0459 25.0668 16.2361 25.0935 16.2851C25.1201 16.3342 25.2201 16.4017 25.3135 16.4323C25.6135 16.5305 26.1868 16.2606 26.7801 15.7393C27.0668 15.4878 27.2868 15.2486 27.2668 15.2057C27.2201 15.0891 27.3668 15.0033 27.5535 15.0339C27.7868 15.0769 28.0935 14.8009 28.5068 14.1753L28.8201 13.703L28.5401 13.8441C28.3868 13.9177 27.9068 14.3163 27.4668 14.7211C27.0335 15.1259 26.7401 15.3713 26.8201 15.2731C26.9001 15.1689 27.1135 14.8867 27.3001 14.6475C27.4801 14.4022 27.7068 14.1569 27.7935 14.1017C27.9001 14.0342 27.9601 13.9422 27.9601 13.8379C27.9601 13.7214 28.0601 13.5865 28.3201 13.3595C28.5868 13.1326 28.7068 12.9731 28.7601 12.783C28.8935 12.3414 29.0135 12.1819 29.3868 11.9611C30.0401 11.5809 30.4268 11.0473 30.4268 10.5321C30.4268 9.88806 29.7201 8.99873 29.0268 8.75953C28.5935 8.61233 27.9535 8.54486 27.6401 8.61846Z" fill="black"/>
</svg>
