<svg width="524" height="461" viewBox="0 0 524 461" fill="none" xmlns="http://www.w3.org/2000/svg">
<path d="M374.822 91.0289C374.227 91.0776 373.309 91.2723 372.642 91.4914C369.723 92.4528 367.759 94.3999 365.813 98.2577C365.363 99.1217 364.805 100.18 364.534 100.594C364.066 101.361 363.886 101.982 364.246 101.604C364.516 101.324 364.462 101.58 364.012 102.59C363.796 103.101 363.543 103.515 363.435 103.503C363.345 103.503 362.967 104.148 362.57 104.951C361.309 107.628 360.444 110.099 359.922 112.521C359.345 115.21 358.643 117.388 357.652 119.555C356.661 121.733 356.445 122.439 356.661 122.682C356.787 122.828 356.769 122.913 356.607 123.011C356.481 123.084 356.318 123.412 356.246 123.741C356.102 124.459 355.67 124.763 354.319 125.08C352.175 125.566 351.057 126.126 349.67 127.38C346.896 129.862 347.67 132.138 351.31 132.15C352.895 132.15 354.877 131.566 354.877 131.091C354.877 130.958 354.805 130.958 354.391 131.104C354.102 131.201 354.787 130.666 355.868 129.923C357.85 128.56 357.868 128.56 360.823 127.562C364.336 126.382 366.426 125.895 370.912 125.213C376.516 124.374 379.002 123.765 380.606 122.84C381.416 122.366 381.614 121.891 381.056 121.757C380.876 121.709 379.687 121.636 378.389 121.599C373.921 121.465 368.57 122.037 361.201 123.461C360.823 123.534 360.787 123.522 360.913 123.315C362.012 121.514 363.687 117.875 365.795 112.63C368.336 106.351 370.156 102.432 371.813 99.7789C373.092 97.6979 375.056 95.5317 376.57 94.5581C376.912 94.3269 377.164 94.0957 377.11 94.047C376.966 93.8888 378.101 93.548 378.804 93.5359C380.047 93.5115 380.497 94.3634 380.029 95.7994C379.488 97.4423 377.164 101.848 376.93 101.69C376.876 101.665 376.984 101.434 377.128 101.166C377.669 100.254 376.894 101.093 375.579 102.87C374.245 104.671 374.155 104.988 374.93 105.267C375.687 105.547 377.435 105.438 378.696 105.048C382.173 103.941 385.236 100.485 385.452 97.4058C385.614 95.41 384.93 94.0957 383.146 92.9517C382.281 92.3919 380.101 91.5522 378.822 91.2723C377.831 91.0532 375.975 90.9437 374.822 91.0289ZM373.615 92.6475C373.615 92.6718 373.489 92.7327 373.327 92.7692C373.182 92.8057 373.11 92.7935 373.164 92.7205C373.273 92.5988 373.615 92.5501 373.615 92.6475ZM372.444 93.1099C371.002 93.8036 369.471 95.1666 368.228 96.8217C367.633 97.637 364.282 103.053 363.904 103.831C363.778 104.087 363.633 104.282 363.597 104.245C363.507 104.184 365.255 100.4 365.886 99.3286C367.471 96.627 369.975 94.0957 371.921 93.2316C372.876 92.7935 373.273 92.7083 372.444 93.1099ZM377.02 94.0957C376.984 94.12 376.552 94.3756 376.047 94.6676L375.146 95.2031L375.957 94.6311C376.39 94.3147 376.822 94.0592 376.93 94.0592C377.02 94.0592 377.056 94.0713 377.02 94.0957Z" fill="white"/>
<path d="M420.063 91.5644C417.883 92.0998 415.901 93.621 412.063 97.6857C409.775 100.083 408.262 101.957 405.181 106.107C402.208 110.099 400.713 112.375 399.289 115.04C398.695 116.159 398.226 116.804 397.686 117.291C396.407 118.423 395.398 119.53 395.596 119.615C395.938 119.761 391.398 122.39 389.578 123.096C387.218 124.009 386.479 122.731 387.866 120.187C388.173 119.64 388.443 119.019 388.461 118.824C388.479 118.618 388.605 118.35 388.731 118.216C388.965 117.973 388.929 118.058 388.623 118.605C388.335 119.129 388.767 118.618 389.362 117.753C390.064 116.707 390.083 116.5 389.398 117.388C389.146 117.717 388.947 117.936 388.929 117.875C388.911 117.62 390.623 115.587 391.236 115.149C391.938 114.638 392.299 114.005 392.064 113.604C392.01 113.494 391.344 113.202 390.587 112.959C389.416 112.569 389.038 112.496 388.029 112.496C386.677 112.496 385.885 112.764 385.164 113.482C384.317 114.309 382.533 118.691 382.75 119.421C382.822 119.664 382.768 119.798 382.551 119.883C382.173 120.029 382.137 121.623 382.515 122.208C382.804 122.694 385.146 124.775 385.722 125.08C387.2 125.846 389.452 126.224 390.605 125.895C391.578 125.627 393.181 124.544 394.605 123.206C395.289 122.573 395.866 122.074 395.92 122.098C395.956 122.122 395.704 122.743 395.362 123.473C393.92 126.491 392.947 129.229 392.497 131.542C392.172 133.258 392.227 136.41 392.587 137.42C393.38 139.574 395.217 140.827 397.812 140.985C400.478 141.156 403.037 139.829 404.893 137.371C406.244 135.546 408.802 129.619 409.127 127.526C409.235 126.893 409.433 126.248 409.559 126.102C409.811 125.846 410.009 125.798 411.811 125.639C412.838 125.542 415.667 124.642 417.108 123.948C417.721 123.656 418.892 122.938 419.703 122.354C420.513 121.782 421.18 121.38 421.18 121.465C421.18 121.55 421.018 122.256 420.82 123.023C420.622 123.79 420.459 124.836 420.459 125.347C420.459 126.382 420.928 127.684 421.198 127.392C421.306 127.27 421.36 127.295 421.36 127.526C421.36 128.451 424.189 130.081 426.639 130.592C428.783 131.031 430.189 130.751 432.729 129.376C434.369 128.499 434.999 128.025 436.981 126.211C437.846 125.433 439.233 124.24 440.08 123.571C442.602 121.575 447.935 116.816 447.99 116.5C448.08 116.038 447.575 115.599 446.963 115.599C446.332 115.599 445.882 115.94 443.071 118.459C442.026 119.396 440.476 120.735 439.63 121.441C438.783 122.147 437.954 122.901 437.828 123.12C437.215 124.07 432.189 127.161 429.972 127.952C426.603 129.156 425.774 127.854 427.198 123.595C427.45 122.84 427.72 121.806 427.828 121.283C427.918 120.759 428.045 120.297 428.099 120.26C428.153 120.224 428.765 120.066 429.468 119.908C431.954 119.336 433.234 118.8 436.242 117.048C438.116 115.965 439.81 114.577 440.512 113.531C441.143 112.606 441.377 111.182 440.999 110.427C440.278 108.955 436.801 107.92 433.846 108.285C431.99 108.517 430.675 109.04 428.909 110.233C426.621 111.79 424.315 114.285 423.036 116.561C422.513 117.498 422.261 117.766 420.405 119.214C418.892 120.406 416.838 121.672 415.288 122.366C413.955 122.962 411.955 123.51 411.127 123.51C410.082 123.51 409.919 123.315 409.901 121.94C409.883 120.528 409.469 119.482 408.748 118.995C408.154 118.593 407.739 118.557 407.199 118.861C405.703 119.676 405.487 122.512 406.784 124.508L407.343 125.36L406.947 126.589C405.343 131.797 401.559 137.383 398.821 138.624C397.758 139.111 397.037 139.075 396.334 138.539L395.776 138.101L395.83 136.495C395.884 135.156 396.01 134.56 396.569 132.941C397.47 130.349 398.551 127.879 400.388 124.106L401.902 120.978L404.46 119.056C411.739 113.531 417.09 108.748 420.549 104.647C421.973 102.955 424.045 100.022 424.513 99.0365C425.558 96.7973 425.81 94.0713 425.072 92.903C424.243 91.6009 422.153 91.0411 420.063 91.5644ZM422.045 94.2782C423.36 94.8502 421.649 98.6836 417.757 103.844C415.18 107.263 410.424 111.778 405.091 115.879C404.496 116.342 404.442 116.488 406.1 113.713C409.217 108.505 413.955 101.726 416.82 98.3672C418.423 96.4931 420.225 94.8137 421 94.4486C421.667 94.1565 421.721 94.1443 422.045 94.2782ZM436.909 109.977C437.323 110.281 437.558 111.145 437.377 111.681C437.287 111.924 437.215 112.362 437.215 112.642C437.215 113.093 437.053 113.299 436.062 114.176C434.603 115.453 432.693 116.67 430.945 117.437C429.702 117.985 429.288 118.119 429.288 117.973C429.288 117.814 431.954 113.689 432.567 112.922C433.756 111.401 435.72 109.758 436.314 109.758C436.495 109.758 436.747 109.855 436.909 109.977ZM422.784 120.857C422.675 121.976 422.495 122.634 421.667 124.848L421.234 126.005L421.09 125.445C421.018 125.128 421.054 124.69 421.162 124.41C421.27 124.155 421.36 123.607 421.36 123.206C421.378 122.804 421.504 122.256 421.649 121.989C421.811 121.721 422.081 121.173 422.261 120.784C422.675 119.92 422.766 119.737 422.838 119.737C422.874 119.737 422.838 120.248 422.784 120.857ZM421.126 126.82C421.09 126.978 421.054 126.856 421.054 126.552C421.054 126.248 421.09 126.126 421.126 126.272C421.162 126.43 421.162 126.674 421.126 126.82ZM396.803 129.619C396.749 129.716 396.695 129.68 396.695 129.546C396.677 129.412 396.731 129.339 396.785 129.388C396.839 129.424 396.857 129.534 396.803 129.619ZM396.569 130.288C396.515 130.544 396.226 131.396 395.938 132.175C395.65 132.953 395.307 134.024 395.163 134.548L394.911 135.497L394.893 134.803C394.875 133.976 395.235 132.771 395.992 131.079C396.587 129.789 396.767 129.522 396.569 130.288Z" fill="white"/>
<path d="M379.38 93.8766C379.38 93.9375 379.47 94.0835 379.561 94.1809C379.651 94.2782 379.741 94.3026 379.741 94.2417C379.741 94.1687 379.651 94.0348 379.561 93.9375C379.47 93.8401 379.38 93.8036 379.38 93.8766Z" fill="black"/>
<path d="M379.777 94.7285C379.777 94.9232 379.813 94.9962 379.867 94.8745C379.903 94.765 379.903 94.5946 379.867 94.5094C379.813 94.4364 379.777 94.5216 379.777 94.7285Z" fill="black"/>
<path d="M391.938 101.385C391.56 101.47 391.47 101.568 391.542 101.726C391.596 101.86 391.542 101.994 391.398 102.055C391.254 102.103 391.055 102.274 390.929 102.42C390.767 102.639 390.785 102.724 391.055 102.907C391.668 103.296 391.65 103.649 390.965 104.878C390.605 105.523 390.317 106.131 390.299 106.229C390.263 106.557 389.344 107.507 388.677 107.872C388.083 108.2 388.029 108.298 388.029 108.845C388.029 109.454 388.515 110.318 388.947 110.5C389.524 110.744 391.812 109.722 392.191 109.064C392.281 108.906 392.443 108.809 392.533 108.845C392.857 108.979 393.506 108.602 394.1 107.945L394.677 107.324L394.19 107.494C393.92 107.592 393.145 108.042 392.461 108.505L391.236 109.332L392.082 108.565C392.551 108.139 393.055 107.762 393.181 107.726C393.308 107.701 393.362 107.592 393.326 107.507C393.272 107.409 393.506 107.154 393.83 106.923C394.172 106.703 394.587 106.253 394.767 105.949C394.947 105.633 395.145 105.377 395.217 105.377C395.307 105.377 395.74 105.158 396.19 104.89C397.199 104.294 397.524 103.71 397.235 103.077C396.983 102.493 395.866 101.617 395.109 101.41C394.443 101.215 392.677 101.203 391.938 101.385Z" fill="white"/>
</svg>
